<svg width="100" height="100" viewBox="0 0 100 100" xmlns="http://www.w3.org/2000/svg">
  <defs>
    <pattern id="circuit" x="0" y="0" width="100" height="100" patternUnits="userSpaceOnUse">
      <!-- Horizontal lines -->
      <path d="M10,20 L90,20" stroke="#4299e1" stroke-width="0.5" fill="none" />
      <path d="M30,40 L90,40" stroke="#4299e1" stroke-width="0.5" fill="none" />
      <path d="M10,60 L70,60" stroke="#4299e1" stroke-width="0.5" fill="none" />
      <path d="M30,80 L90,80" stroke="#4299e1" stroke-width="0.5" fill="none" />
      
      <!-- Vertical lines -->
      <path d="M20,10 L20,90" stroke="#4299e1" stroke-width="0.5" fill="none" />
      <path d="M40,30 L40,90" stroke="#4299e1" stroke-width="0.5" fill="none" />
      <path d="M60,10 L60,70" stroke="#4299e1" stroke-width="0.5" fill="none" />
      <path d="M80,30 L80,90" stroke="#4299e1" stroke-width="0.5" fill="none" />
      
      <!-- Connection nodes -->
      <circle cx="20" cy="20" r="2" fill="#4299e1" />
      <circle cx="40" cy="40" r="2" fill="#4299e1" />
      <circle cx="60" cy="60" r="2" fill="#4299e1" />
      <circle cx="80" cy="80" r="2" fill="#4299e1" />
      <circle cx="20" cy="60" r="2" fill="#4299e1" />
      <circle cx="60" cy="20" r="2" fill="#4299e1" />
      <circle cx="80" cy="40" r="2" fill="#4299e1" />
      <circle cx="40" cy="80" r="2" fill="#4299e1" />
      
      <!-- Diagonal connections -->
      <path d="M20,20 L40,40" stroke="#4299e1" stroke-width="0.5" fill="none" />
      <path d="M40,40 L60,60" stroke="#4299e1" stroke-width="0.5" fill="none" />
      <path d="M60,60 L80,80" stroke="#4299e1" stroke-width="0.5" fill="none" />
      <path d="M60,20 L80,40" stroke="#4299e1" stroke-width="0.5" fill="none" />
      <path d="M20,60 L40,80" stroke="#4299e1" stroke-width="0.5" fill="none" />
    </pattern>
  </defs>
  <rect x="0" y="0" width="100" height="100" fill="url(#circuit)" />
</svg> 
