<svg width="100" height="100" viewBox="0 0 100 100" xmlns="http://www.w3.org/2000/svg">
  <defs>
    <pattern id="digital" x="0" y="0" width="100" height="100" patternUnits="userSpaceOnUse">
      <!-- Digital dots pattern -->
      <circle cx="10" cy="10" r="1" fill="#4299e1" opacity="0.3" />
      <circle cx="30" cy="10" r="1" fill="#4299e1" opacity="0.3" />
      <circle cx="50" cy="10" r="1" fill="#4299e1" opacity="0.3" />
      <circle cx="70" cy="10" r="1" fill="#4299e1" opacity="0.3" />
      <circle cx="90" cy="10" r="1" fill="#4299e1" opacity="0.3" />
      
      <circle cx="10" cy="30" r="1" fill="#4299e1" opacity="0.3" />
      <circle cx="30" cy="30" r="1" fill="#4299e1" opacity="0.3" />
      <circle cx="50" cy="30" r="1" fill="#4299e1" opacity="0.3" />
      <circle cx="70" cy="30" r="1" fill="#4299e1" opacity="0.3" />
      <circle cx="90" cy="30" r="1" fill="#4299e1" opacity="0.3" />
      
      <circle cx="10" cy="50" r="1" fill="#4299e1" opacity="0.3" />
      <circle cx="30" cy="50" r="1" fill="#4299e1" opacity="0.3" />
      <circle cx="50" cy="50" r="1" fill="#4299e1" opacity="0.3" />
      <circle cx="70" cy="50" r="1" fill="#4299e1" opacity="0.3" />
      <circle cx="90" cy="50" r="1" fill="#4299e1" opacity="0.3" />
      
      <circle cx="10" cy="70" r="1" fill="#4299e1" opacity="0.3" />
      <circle cx="30" cy="70" r="1" fill="#4299e1" opacity="0.3" />
      <circle cx="50" cy="70" r="1" fill="#4299e1" opacity="0.3" />
      <circle cx="70" cy="70" r="1" fill="#4299e1" opacity="0.3" />
      <circle cx="90" cy="70" r="1" fill="#4299e1" opacity="0.3" />
      
      <circle cx="10" cy="90" r="1" fill="#4299e1" opacity="0.3" />
      <circle cx="30" cy="90" r="1" fill="#4299e1" opacity="0.3" />
      <circle cx="50" cy="90" r="1" fill="#4299e1" opacity="0.3" />
      <circle cx="70" cy="90" r="1" fill="#4299e1" opacity="0.3" />
      <circle cx="90" cy="90" r="1" fill="#4299e1" opacity="0.3" />
      
      <!-- Digital lines -->
      <path d="M20,20 L80,20" stroke="#4299e1" stroke-width="0.2" opacity="0.2" />
      <path d="M20,40 L80,40" stroke="#4299e1" stroke-width="0.2" opacity="0.2" />
      <path d="M20,60 L80,60" stroke="#4299e1" stroke-width="0.2" opacity="0.2" />
      <path d="M20,80 L80,80" stroke="#4299e1" stroke-width="0.2" opacity="0.2" />
      
      <path d="M20,20 L20,80" stroke="#4299e1" stroke-width="0.2" opacity="0.2" />
      <path d="M40,20 L40,80" stroke="#4299e1" stroke-width="0.2" opacity="0.2" />
      <path d="M60,20 L60,80" stroke="#4299e1" stroke-width="0.2" opacity="0.2" />
      <path d="M80,20 L80,80" stroke="#4299e1" stroke-width="0.2" opacity="0.2" />
    </pattern>
  </defs>
  <rect x="0" y="0" width="100" height="100" fill="url(#digital)" />
</svg> 
